<svg width="20" height="20" viewBox="0 0 20 20" fill="none" xmlns="http://www.w3.org/2000/svg">
<path d="M4.39062 8.12495C4.38956 7.38403 4.53513 6.65015 4.81894 5.96572C5.10275 5.28125 5.51917 4.65972 6.04407 4.13688C6.56912 3.61404 7.19244 3.20022 7.87802 2.91927C8.56375 2.63835 9.29816 2.49583 10.0391 2.49995C13.1328 2.52341 15.6093 5.09372 15.6093 8.19526V8.74995C15.6093 11.5469 16.1953 13.1718 16.7109 14.0625C16.7657 14.1573 16.7946 14.2649 16.7946 14.3744C16.7948 14.4839 16.7661 14.5916 16.7115 14.6865C16.6569 14.7814 16.5783 14.8604 16.4837 14.9154C16.3889 14.9704 16.2813 14.9996 16.1719 15H3.82819C3.71863 14.9996 3.61105 14.9704 3.51645 14.9154C3.42169 14.8604 3.34311 14.7814 3.28848 14.6865C3.23386 14.5916 3.20517 14.4839 3.20532 14.3744C3.20547 14.2649 3.23431 14.1573 3.28909 14.0625C3.80469 13.1718 4.39062 11.5469 4.39062 8.74995V8.12495Z" fill="#212123" fill-opacity="0.16"/>
<path fill-rule="evenodd" clip-rule="evenodd" d="M3.76562 8.74994V8.12494C3.76562 8.12494 3.76387 6.87852 4.24158 5.72632C4.24158 5.72632 4.71929 4.57413 5.6031 3.69398C5.6031 3.69398 6.48691 2.81384 7.64108 2.34093C7.64108 2.34093 8.79525 1.86801 10.0425 1.87495C10.0425 1.87495 11.3108 1.88456 12.4657 2.39122C12.4657 2.39122 13.5768 2.87869 14.4322 3.75733C14.4322 3.75733 15.2842 4.63254 15.7515 5.76109C15.7515 5.76109 16.2344 6.92723 16.2344 8.19526V8.74994C16.2344 8.74994 16.2344 11.9919 17.2518 13.7493C17.2518 13.7493 17.4194 14.0395 17.4197 14.3738C17.4197 14.3738 17.42 14.7082 17.2533 14.998C17.2533 14.998 17.0866 15.2879 16.7975 15.4558C16.7975 15.4558 16.5084 15.6238 16.1741 15.6249L3.82812 15.6249C3.82812 15.6249 3.49157 15.6238 3.20246 15.4558C3.20246 15.4558 2.91335 15.2879 2.74669 14.998C2.74669 14.998 2.58003 14.7082 2.58032 14.3738C2.58032 14.3738 2.58062 14.0395 2.7478 13.7499C2.7478 13.7499 3.76562 11.9919 3.76562 8.74994ZM5.01562 8.74994C5.01562 8.74994 5.01562 12.3276 3.83032 14.3749L16.1697 14.3749C16.1697 14.3749 14.9844 12.3271 14.9844 8.74994V8.19526C14.9844 8.19526 14.9844 6.11647 13.5365 4.62928C13.5365 4.62928 12.0871 3.14048 10.0356 3.12493C10.0356 3.12493 9.03807 3.11938 8.11502 3.4976C8.11502 3.4976 7.19197 3.87581 6.48514 4.5797C6.48514 4.5797 5.77831 5.2836 5.39627 6.20507C5.39627 6.20507 5.01422 7.12654 5.01562 8.12494V8.74994Z" fill="#212123"/>
<path d="M13.125 15.625V15C13.125 14.6548 12.8452 14.375 12.5 14.375C12.1548 14.375 11.875 14.6548 11.875 15V15.625C11.875 16.4016 11.3258 16.9508 11.3258 16.9508C10.7766 17.5 10 17.5 10 17.5C9.22335 17.5 8.67417 16.9508 8.67417 16.9508C8.125 16.4016 8.125 15.625 8.125 15.625V15C8.125 14.6548 7.84518 14.375 7.5 14.375C7.15482 14.375 6.875 14.6548 6.875 15L6.875 15.625C6.875 16.9194 7.79029 17.8347 7.79029 17.8347C8.70558 18.75 10 18.75 10 18.75C11.2944 18.75 12.2097 17.8347 12.2097 17.8347C13.125 16.9194 13.125 15.625 13.125 15.625Z" fill="#212123"/>
</svg>
