<svg width="20" height="20" viewBox="0 0 20 20" fill="none" xmlns="http://www.w3.org/2000/svg">
<path opacity="0.1" d="M11.875 10C11.875 11.0355 11.0355 11.875 10 11.875C8.96454 11.875 8.125 11.0355 8.125 10C8.125 8.96446 8.96454 8.125 10 8.125C11.0355 8.125 11.875 8.96446 11.875 10Z" fill="#212123"/>
<path opacity="0.1" d="M5.625 10C5.625 11.0355 4.78546 11.875 3.75 11.875C2.71454 11.875 1.875 11.0355 1.875 10C1.875 8.96446 2.71454 8.125 3.75 8.125C4.78546 8.125 5.625 8.96446 5.625 10Z" fill="#212123"/>
<path opacity="0.1" d="M18.125 10C18.125 11.0355 17.2855 11.875 16.25 11.875C15.2145 11.875 14.375 11.0355 14.375 10C14.375 8.96446 15.2145 8.125 16.25 8.125C17.2855 8.125 18.125 8.96446 18.125 10Z" fill="#212123"/>
<path fill-rule="evenodd" clip-rule="evenodd" d="M10 7.5C10 7.5 11.0355 7.5 11.7678 8.23223C11.7678 8.23223 12.5 8.96447 12.5 10C12.5 10 12.5 11.0355 11.7678 11.7678C11.7678 11.7678 11.0355 12.5 10 12.5C10 12.5 8.96447 12.5 8.23223 11.7678C8.23223 11.7678 7.5 11.0355 7.5 10C7.5 10 7.5 8.96447 8.23223 8.23223C8.23223 8.23223 8.96447 7.5 10 7.5ZM10 8.75C10 8.75 9.48223 8.75 9.11612 9.11612C9.11612 9.11612 8.75 9.48223 8.75 10C8.75 10 8.75 10.5178 9.11612 10.8839C9.11612 10.8839 9.48223 11.25 10 11.25C10 11.25 10.5178 11.25 10.8839 10.8839C10.8839 10.8839 11.25 10.5178 11.25 10C11.25 10 11.25 9.48223 10.8839 9.11612C10.8839 9.11612 10.5178 8.75 10 8.75Z" fill="#212123"/>
<path fill-rule="evenodd" clip-rule="evenodd" d="M3.75 7.5C3.75 7.5 4.78553 7.5 5.51777 8.23223C5.51777 8.23223 6.25 8.96447 6.25 10C6.25 10 6.25 11.0355 5.51777 11.7678C5.51777 11.7678 4.78553 12.5 3.75 12.5C3.75 12.5 2.71447 12.5 1.98223 11.7678C1.98223 11.7678 1.25 11.0355 1.25 10C1.25 10 1.25 8.96447 1.98223 8.23223C1.98223 8.23223 2.71447 7.5 3.75 7.5ZM3.75 8.75C3.75 8.75 3.23223 8.75 2.86612 9.11612C2.86612 9.11612 2.5 9.48223 2.5 10C2.5 10 2.5 10.5178 2.86612 10.8839C2.86612 10.8839 3.23223 11.25 3.75 11.25C3.75 11.25 4.26777 11.25 4.63388 10.8839C4.63388 10.8839 5 10.5178 5 10C5 10 5 9.48223 4.63388 9.11612C4.63388 9.11612 4.26777 8.75 3.75 8.75Z" fill="#212123"/>
<path fill-rule="evenodd" clip-rule="evenodd" d="M16.25 7.5C16.25 7.5 17.2855 7.5 18.0178 8.23223C18.0178 8.23223 18.75 8.96447 18.75 10C18.75 10 18.75 11.0355 18.0178 11.7678C18.0178 11.7678 17.2855 12.5 16.25 12.5C16.25 12.5 15.2145 12.5 14.4822 11.7678C14.4822 11.7678 13.75 11.0355 13.75 10C13.75 10 13.75 8.96447 14.4822 8.23223C14.4822 8.23223 15.2145 7.5 16.25 7.5ZM16.25 8.75C16.25 8.75 15.7322 8.75 15.3661 9.11612C15.3661 9.11612 15 9.48223 15 10C15 10 15 10.5178 15.3661 10.8839C15.3661 10.8839 15.7322 11.25 16.25 11.25C16.25 11.25 16.7678 11.25 17.1339 10.8839C17.1339 10.8839 17.5 10.5178 17.5 10C17.5 10 17.5 9.48223 17.1339 9.11612C17.1339 9.11612 16.7678 8.75 16.25 8.75Z" fill="#212123"/>
</svg>
