<svg width="16" height="16" viewBox="0 0 16 16" fill="none" xmlns="http://www.w3.org/2000/svg">
<path d="M5.5 10C5.5 10.1562 5.53125 10.3 5.54376 10.4562C5.70001 10.4688 5.84375 10.5 6 10.5C7.19348 10.5 8.33807 10.0259 9.18198 9.18201C10.0259 8.33807 10.5 7.19348 10.5 6C10.5 5.84375 10.4688 5.70001 10.4562 5.54376C10.3 5.53125 10.1562 5.5 10 5.5C8.80652 5.5 7.66193 5.97412 6.81802 6.81799C5.97409 7.66193 5.5 8.80652 5.5 10Z" fill="#212123" fill-opacity="0.16"/>
<path fill-rule="evenodd" clip-rule="evenodd" d="M6 1C6 1 7.01692 1 7.94638 1.39313C7.94638 1.39313 8.84376 1.77269 9.53553 2.46447C9.53553 2.46447 10.2273 3.15624 10.6069 4.05362C10.6069 4.05362 11 4.98309 11 6C11 6 11 7.01692 10.6069 7.94638C10.6069 7.94638 10.2273 8.84376 9.53553 9.53553C9.53553 9.53553 8.84376 10.2273 7.94638 10.6069C7.94638 10.6069 7.01691 11 6 11C6 11 4.98308 11 4.05362 10.6069C4.05362 10.6069 3.15624 10.2273 2.46447 9.53553C2.46447 9.53553 1.77269 8.84376 1.39313 7.94638C1.39313 7.94638 1 7.01691 1 6C1 6 1 4.98308 1.39313 4.05362C1.39313 4.05362 1.77269 3.15624 2.46447 2.46447C2.46447 2.46447 3.15624 1.77269 4.05362 1.39313C4.05362 1.39313 4.98308 1 6 1ZM6 2C6 2 4.34315 2 3.17157 3.17157C3.17157 3.17157 2 4.34315 2 6C2 6 2 7.65685 3.17157 8.82843C3.17157 8.82843 4.34315 10 6 10C6 10 7.65685 10 8.82843 8.82843C8.82843 8.82843 10 7.65685 10 6C10 6 10 4.34315 8.82843 3.17157C8.82843 3.17157 7.65685 2 6 2Z" fill="#1C1C1C"/>
<path fill-rule="evenodd" clip-rule="evenodd" d="M10 5C10 5 11.0169 5 11.9464 5.39313C11.9464 5.39313 12.8438 5.77269 13.5355 6.46447C13.5355 6.46447 14.2273 7.15624 14.6069 8.05362C14.6069 8.05362 15 8.98309 15 10C15 10 15 11.0169 14.6069 11.9464C14.6069 11.9464 14.2273 12.8438 13.5355 13.5355C13.5355 13.5355 12.8438 14.2273 11.9464 14.6069C11.9464 14.6069 11.0169 15 10 15C10 15 8.98308 15 8.05362 14.6069C8.05362 14.6069 7.15624 14.2273 6.46447 13.5355C6.46447 13.5355 5.77269 12.8438 5.39313 11.9464C5.39313 11.9464 5 11.0169 5 10C5 10 5 8.98308 5.39313 8.05362C5.39313 8.05362 5.77269 7.15624 6.46447 6.46447C6.46447 6.46447 7.15624 5.77269 8.05362 5.39313C8.05362 5.39313 8.98308 5 10 5ZM10 6C10 6 8.34315 6 7.17157 7.17157C7.17157 7.17157 6 8.34315 6 10C6 10 6 11.6569 7.17157 12.8284C7.17157 12.8284 8.34315 14 10 14C10 14 11.6569 14 12.8284 12.8284C12.8284 12.8284 14 11.6569 14 10C14 10 14 8.34315 12.8284 7.17157C12.8284 7.17157 11.6569 6 10 6Z" fill="#1C1C1C"/>
</svg>
