<svg width="16" height="16" viewBox="0 0 16 16" fill="none" xmlns="http://www.w3.org/2000/svg">
<path d="M4 12.5C4 13.3284 3.32843 14 2.5 14C1.67157 14 1 13.3284 1 12.5C1 11.6716 1.67157 11 2.5 11C3.32843 11 4 11.6716 4 12.5Z" fill="#212123" fill-opacity="0.16"/>
<path d="M7.5 6C7.5 6.82843 6.82843 7.5 6 7.5C5.17157 7.5 4.5 6.82843 4.5 6C4.5 5.17157 5.17157 4.5 6 4.5C6.82843 4.5 7.5 5.17157 7.5 6Z" fill="#212123" fill-opacity="0.16"/>
<path d="M11.5 10C11.5 10.8284 10.8284 11.5 10 11.5C9.17157 11.5 8.5 10.8284 8.5 10C8.5 9.17157 9.17157 8.5 10 8.5C10.8284 8.5 11.5 9.17157 11.5 10Z" fill="#212123" fill-opacity="0.16"/>
<path d="M15 3.5C15 4.32843 14.3284 5 13.5 5C12.6716 5 12 4.32843 12 3.5C12 2.67157 12.6716 2 13.5 2C14.3284 2 15 2.67157 15 3.5Z" fill="#212123" fill-opacity="0.16"/>
<path fill-rule="evenodd" clip-rule="evenodd" d="M2.5 10.5C2.5 10.5 3.32843 10.5 3.91421 11.0858C3.91421 11.0858 4.5 11.6716 4.5 12.5C4.5 12.5 4.5 13.3284 3.91421 13.9142C3.91421 13.9142 3.32843 14.5 2.5 14.5C2.5 14.5 1.67157 14.5 1.08579 13.9142C1.08579 13.9142 0.5 13.3284 0.5 12.5C0.5 12.5 0.5 11.6716 1.08579 11.0858C1.08579 11.0858 1.67157 10.5 2.5 10.5ZM2.5 11.5C2.5 11.5 2.08579 11.5 1.79289 11.7929C1.79289 11.7929 1.5 12.0858 1.5 12.5C1.5 12.5 1.5 12.9142 1.79289 13.2071C1.79289 13.2071 2.08579 13.5 2.5 13.5C2.5 13.5 2.91421 13.5 3.20711 13.2071C3.20711 13.2071 3.5 12.9142 3.5 12.5C3.5 12.5 3.5 12.0858 3.20711 11.7929C3.20711 11.7929 2.91421 11.5 2.5 11.5Z" fill="#6936D7"/>
<path fill-rule="evenodd" clip-rule="evenodd" d="M6 4C6 4 6.82843 4 7.41421 4.58579C7.41421 4.58579 8 5.17157 8 6C8 6 8 6.82843 7.41421 7.41421C7.41421 7.41421 6.82843 8 6 8C6 8 5.17157 8 4.58579 7.41421C4.58579 7.41421 4 6.82843 4 6C4 6 4 5.17157 4.58579 4.58579C4.58579 4.58579 5.17157 4 6 4ZM6 5C6 5 5.58579 5 5.29289 5.29289C5.29289 5.29289 5 5.58579 5 6C5 6 5 6.41421 5.29289 6.70711C5.29289 6.70711 5.58579 7 6 7C6 7 6.41421 7 6.70711 6.70711C6.70711 6.70711 7 6.41421 7 6C7 6 7 5.58579 6.70711 5.29289C6.70711 5.29289 6.41421 5 6 5Z" fill="#6936D7"/>
<path fill-rule="evenodd" clip-rule="evenodd" d="M10 8C10 8 10.8284 8 11.4142 8.58579C11.4142 8.58579 12 9.17157 12 10C12 10 12 10.8284 11.4142 11.4142C11.4142 11.4142 10.8284 12 10 12C10 12 9.17157 12 8.58579 11.4142C8.58579 11.4142 8 10.8284 8 10C8 10 8 9.17157 8.58579 8.58579C8.58579 8.58579 9.17157 8 10 8ZM10 9C10 9 9.58579 9 9.29289 9.29289C9.29289 9.29289 9 9.58579 9 10C9 10 9 10.4142 9.29289 10.7071C9.29289 10.7071 9.58579 11 10 11C10 11 10.4142 11 10.7071 10.7071C10.7071 10.7071 11 10.4142 11 10C11 10 11 9.58579 10.7071 9.29289C10.7071 9.29289 10.4142 9 10 9Z" fill="#6936D7"/>
<path fill-rule="evenodd" clip-rule="evenodd" d="M13.5 1.5C13.5 1.5 14.3284 1.5 14.9142 2.08579C14.9142 2.08579 15.5 2.67157 15.5 3.5C15.5 3.5 15.5 4.32843 14.9142 4.91421C14.9142 4.91421 14.3284 5.5 13.5 5.5C13.5 5.5 12.6716 5.5 12.0858 4.91421C12.0858 4.91421 11.5 4.32843 11.5 3.5C11.5 3.5 11.5 2.67157 12.0858 2.08579C12.0858 2.08579 12.6716 1.5 13.5 1.5ZM13.5 2.5C13.5 2.5 13.0858 2.5 12.7929 2.79289C12.7929 2.79289 12.5 3.08579 12.5 3.5C12.5 3.5 12.5 3.91421 12.7929 4.20711C12.7929 4.20711 13.0858 4.5 13.5 4.5C13.5 4.5 13.9142 4.5 14.2071 4.20711C14.2071 4.20711 14.5 3.91421 14.5 3.5C14.5 3.5 14.5 3.08579 14.2071 2.79289C14.2071 2.79289 13.9142 2.5 13.5 2.5Z" fill="#6936D7"/>
<path d="M2.77214 10.9444L2.77206 10.9446C2.73298 11.0173 2.71252 11.0986 2.71252 11.1812L2.71267 11.1932C2.71374 11.238 2.72083 11.2824 2.73375 11.3254C2.77198 11.4523 2.85908 11.5589 2.9759 11.6217C3.04865 11.6608 3.12994 11.6812 3.21252 11.6812C3.22687 11.6812 3.2412 11.6806 3.2555 11.6794C3.42364 11.6649 3.57312 11.5665 3.65299 11.4179L3.65307 11.4177L5.72799 7.55535C5.76707 7.4826 5.78752 7.40131 5.78752 7.31873C5.78752 7.30438 5.78691 7.29004 5.78567 7.27575C5.77117 7.10761 5.67282 6.95813 5.52415 6.87826C5.4514 6.83918 5.37011 6.81873 5.28752 6.81873L5.27558 6.81887C5.23077 6.81994 5.18631 6.82703 5.14339 6.83995C5.01641 6.87818 4.90982 6.96528 4.84706 7.0821L2.77214 10.9444Z" fill="#6936D7"/>
<path d="M7.41605 6.70895C7.32229 6.61518 7.19511 6.5625 7.0625 6.5625C6.92989 6.5625 6.80271 6.61518 6.70895 6.70895C6.61518 6.80271 6.5625 6.92989 6.5625 7.0625C6.5625 7.19511 6.61518 7.32229 6.70895 7.41605L8.58395 9.29105C8.67772 9.38482 8.80489 9.4375 8.9375 9.4375C8.94613 9.4375 8.95475 9.43728 8.96337 9.43683C9.08687 9.43043 9.20361 9.3785 9.29105 9.29105C9.38482 9.19729 9.4375 9.07011 9.4375 8.9375C9.4375 8.80489 9.38482 8.67771 9.29105 8.58395L7.41605 6.70895Z" fill="#6936D7"/>
<path d="M10.2721 8.44444L10.2721 8.4446C10.233 8.51735 10.2125 8.59864 10.2125 8.68123L10.2127 8.69317C10.2137 8.73798 10.2208 8.78244 10.2338 8.82536C10.272 8.95234 10.3591 9.05893 10.4759 9.12169C10.5486 9.16077 10.6299 9.18123 10.7125 9.18123C10.7269 9.18123 10.7412 9.18061 10.7555 9.17938C10.9236 9.16487 11.0731 9.06652 11.153 8.91785L11.1531 8.91769L13.228 5.05535C13.2671 4.9826 13.2875 4.90131 13.2875 4.81873C13.2875 4.80438 13.2869 4.79004 13.2857 4.77575C13.2712 4.60761 13.1728 4.45813 13.0241 4.37826C12.9514 4.33918 12.8701 4.31873 12.7875 4.31873L12.7756 4.31887C12.7308 4.31994 12.6863 4.32703 12.6434 4.33995C12.5164 4.37818 12.4098 4.46528 12.3471 4.5821L10.2721 8.44444Z" fill="#6936D7"/>
</svg>
