<svg width="20" height="20" viewBox="0 0 20 20" fill="none" xmlns="http://www.w3.org/2000/svg">
<path d="M9.90627 12.6875L13.0156 15.7969L10.4453 18.3203C10.3261 18.4343 10.1672 18.4972 10.0023 18.4958C9.83745 18.4943 9.67963 18.4285 9.56252 18.3125L7.32032 16.0703C7.20401 15.9508 7.13954 15.7901 7.14103 15.6234C7.14248 15.4566 7.20973 15.2971 7.32814 15.1797L9.90627 12.6875Z" fill="#212123" fill-opacity="0.16"/>
<path d="M7.32036 10.1094L4.21878 7L1.68754 9.5547C1.57066 9.67189 1.505 9.83058 1.505 9.99606C1.505 10.1616 1.57066 10.3203 1.68754 10.4375L3.9297 12.6797C4.04926 12.7961 4.20985 12.8604 4.37663 12.859C4.54341 12.8575 4.70287 12.7903 4.82036 12.6718L7.32036 10.1094Z" fill="#212123" fill-opacity="0.16"/>
<path fill-rule="evenodd" clip-rule="evenodd" d="M5.26405 13.112C5.26405 13.112 4.8996 13.4794 4.38212 13.484C4.38212 13.484 3.86464 13.4885 3.48777 13.1216L1.24505 10.8789C1.24505 10.8789 0.880005 10.513 0.880005 9.99609C0.880005 9.99609 0.880005 9.47921 1.24294 9.11541L6.40978 3.88605C6.40978 3.88605 7.38224 2.91415 8.65368 2.391C8.65368 2.391 9.92512 1.86784 11.3 1.87389C11.3 1.87389 12.6748 1.87994 13.9416 2.41427C13.9416 2.41427 15.2084 2.9486 16.1721 3.9288C16.1721 3.9288 17.1505 4.92303 17.6554 6.21631C17.6554 6.21631 18.1413 7.46096 18.124 8.81072C18.124 8.81072 18.1068 10.1557 17.5928 11.3979C17.5928 11.3979 17.0616 12.6817 16.0707 13.6725L10.8773 18.772C10.8773 18.772 10.5079 19.1253 9.99682 19.1208C9.99682 19.1208 9.48569 19.1162 9.12059 18.7544L6.87246 16.5062C6.87246 16.5062 6.51152 16.1354 6.51606 15.6179C6.51606 15.6179 6.5206 15.1004 6.8933 14.7308L12.1206 9.66743C12.1206 9.66743 12.5036 9.28437 12.5069 8.7414C12.5069 8.7414 12.5101 8.20648 12.1387 7.8504C12.1387 7.8504 11.7693 7.49766 11.2587 7.50222C11.2587 7.50222 10.748 7.50678 10.3926 7.85845L5.26757 13.1085L5.26405 13.112ZM9.49811 6.98528L4.37624 12.2321C4.37624 12.2321 4.3741 12.234 4.37115 12.234C4.37115 12.234 4.36999 12.234 4.36974 12.2345C4.36974 12.2345 4.36929 12.2354 4.37157 12.2377L2.13 9.99609L2.13212 9.99396L7.2934 4.77019C7.2934 4.77019 8.08905 3.975 9.12932 3.54697C9.12932 3.54697 10.1696 3.11893 11.2945 3.12388C11.2945 3.12388 12.4194 3.12883 13.4558 3.56601C13.4558 3.56601 14.4923 4.00319 15.2811 4.80556C15.2811 4.80556 16.0794 5.61679 16.4909 6.67089C16.4909 6.67089 16.8883 7.68859 16.8741 8.79474C16.8741 8.79474 16.86 9.89961 16.4378 10.92C16.4378 10.92 16.0017 11.9738 15.1949 12.7806L10.0133 17.8686C10.0133 17.8686 10.0127 17.8692 10.0117 17.8698C10.0107 17.8703 10.0094 17.8708 10.0079 17.8708C10.0079 17.8708 10.0066 17.8708 10.0056 17.8707C10.005 17.8707 10.0046 17.8706 10.0045 17.8706L7.76822 15.6344C7.76822 15.6344 7.76598 15.6321 7.76601 15.6289C7.76601 15.6289 7.76602 15.6275 7.76549 15.6273C7.76549 15.6273 7.76528 15.6271 7.7648 15.6273C7.76441 15.6275 7.76383 15.6278 7.76304 15.6286L13.0045 10.5513C13.0045 10.5513 13.7506 9.8052 13.7569 8.74882C13.7569 8.74882 13.7632 7.67627 13.002 6.94647C13.002 6.94647 12.2657 6.24318 11.2475 6.25227C11.2475 6.25227 10.2293 6.26136 9.49811 6.98528Z" fill="#212123"/>
<path d="M12.5734 16.2385L12.5737 16.2388C12.6909 16.356 12.8499 16.4219 13.0156 16.4219C13.1814 16.4219 13.3404 16.356 13.4576 16.2388C13.5748 16.1216 13.6406 15.9626 13.6406 15.7969C13.6406 15.6311 13.5748 15.4721 13.4576 15.3549L13.4572 15.3546L10.3483 12.2456C10.231 12.1283 10.072 12.0625 9.90625 12.0625C9.74049 12.0625 9.58152 12.1283 9.46431 12.2456C9.3471 12.3628 9.28125 12.5217 9.28125 12.6875C9.28125 12.8533 9.3471 13.0122 9.46431 13.1294L12.5734 16.2385Z" fill="#212123"/>
<path d="M6.87757 10.5505L6.87782 10.5508C6.99507 10.6683 7.15428 10.7344 7.32031 10.7344C7.33084 10.7344 7.34136 10.7341 7.35187 10.7336C7.50625 10.7258 7.65226 10.661 7.7617 10.5519C7.87925 10.4346 7.94531 10.2754 7.94531 10.1094C7.94531 10.0989 7.94505 10.0883 7.94452 10.0778C7.93671 9.92344 7.87197 9.77743 7.76281 9.66799L7.76257 9.66775L4.66125 6.55861C4.54399 6.44106 4.38478 6.375 4.21875 6.375C4.20823 6.375 4.19771 6.37527 4.1872 6.3758C4.03282 6.3836 3.8868 6.44834 3.77736 6.5575C3.65981 6.67476 3.59375 6.83397 3.59375 7C3.59375 7.01052 3.59402 7.02104 3.59455 7.03155C3.60235 7.18593 3.66709 7.33195 3.77625 7.44139L6.87757 10.5505Z" fill="#212123"/>
</svg>
