<svg width="20" height="20" viewBox="0 0 20 20" fill="none" xmlns="http://www.w3.org/2000/svg">
<path d="M2.58595 5.82812C2.52934 5.92532 2.49966 6.03595 2.5 6.14841V13.8515C2.50059 13.9629 2.53052 14.072 2.58677 14.168C2.64299 14.2639 2.72356 14.3434 2.82032 14.3984L9.69532 18.2656C9.78802 18.3185 9.89326 18.3455 10 18.3437L10.0703 10L2.58595 5.82812Z" fill="#E6DFF5"/>
<path fill-rule="evenodd" clip-rule="evenodd" d="M18.125 13.8549L18.125 13.8567C18.125 13.8567 18.1227 14.1933 17.9525 14.4838C17.9525 14.4838 17.7819 14.7752 17.4883 14.9419L10.6111 18.8103C10.6111 18.8103 10.3307 18.9722 10 18.9722C10 18.9722 9.66925 18.9722 9.38282 18.8069L2.5139 14.9431C2.5139 14.9431 2.21809 14.7752 2.04746 14.4838C2.04746 14.4838 1.87682 14.1925 1.87501 13.8549L1.875 6.14841C1.875 6.14841 1.87682 5.80744 2.04746 5.51611C2.04746 5.51611 2.21809 5.22478 2.51168 5.05806L9.3889 1.18962C9.3889 1.18962 9.66925 1.02771 10 1.02771C10 1.02771 10.3307 1.02771 10.6172 1.19308L17.4861 5.0568C17.4861 5.0568 17.7819 5.22478 17.9525 5.51611C17.9525 5.51611 18.1232 5.80744 18.125 6.14506L18.125 13.8515L18.125 13.8549ZM16.875 6.15177L16.875 13.8482V13.8485C16.875 13.8485 16.875 13.8492 16.8747 13.8502C16.8746 13.8508 16.8743 13.8514 16.8739 13.8521C16.8739 13.8521 16.8729 13.8539 16.8711 13.8549L9.99996 17.7199L3.12682 13.8537C3.12682 13.8537 3.12685 13.8537 3.12677 13.8534C3.12668 13.8532 3.12649 13.8528 3.12606 13.8521C3.12606 13.8521 3.125 13.8503 3.12499 13.8482L3.125 6.14841L3.12514 6.14892C3.12514 6.14892 3.12522 6.14895 3.12539 6.14879C3.12554 6.14865 3.12576 6.14838 3.12606 6.14786C3.12606 6.14786 3.12712 6.14605 3.12895 6.14502L10 2.28003L16.8732 6.14625C16.8732 6.14625 16.8731 6.14635 16.8739 6.14786C16.8739 6.14786 16.875 6.14967 16.875 6.15177Z" fill="#212123"/>
<path d="M6.55185 3.1246C6.45941 3.07361 6.35557 3.04688 6.25 3.04688L6.24198 3.04693C6.18596 3.04765 6.13028 3.05589 6.07646 3.07145C5.91721 3.11748 5.78278 3.22488 5.70272 3.37003C5.65174 3.46246 5.625 3.56631 5.625 3.67188L5.62505 3.67989C5.62577 3.73592 5.63402 3.79159 5.64958 3.84542C5.6956 4.00466 5.803 4.1391 5.94815 4.21915L13.2031 8.22061V11.9141C13.2031 12.2592 13.4829 12.5391 13.8281 12.5391C14.1733 12.5391 14.4531 12.2592 14.4531 11.9141V7.85156C14.4531 7.6239 14.3293 7.41424 14.13 7.30429L6.55185 3.1246Z" fill="#212123"/>
<path d="M10.0674 9.28284L2.89024 5.28221C2.7972 5.23035 2.69245 5.20313 2.58594 5.20312L2.58072 5.20315C2.52469 5.20361 2.46898 5.21161 2.41509 5.22693C2.25564 5.27224 2.12073 5.37904 2.04002 5.52382C1.98816 5.61686 1.96094 5.72161 1.96094 5.82812L1.96096 5.83334C1.96143 5.88937 1.96943 5.94508 1.98474 5.99897C2.03005 6.15842 2.13685 6.29334 2.28164 6.37404L9.76601 10.5459C9.95675 10.6522 10.1892 10.6513 10.379 10.5434L17.7228 6.37156C17.8669 6.28968 17.9726 6.1539 18.0166 5.99409C18.0315 5.94003 18.0391 5.8842 18.0391 5.82812L18.0389 5.81278C18.0363 5.70978 18.0084 5.609 17.9575 5.51941C17.8464 5.3239 17.6389 5.20312 17.4141 5.20312C17.4058 5.20312 17.3976 5.20329 17.3894 5.20361C17.2896 5.20755 17.1922 5.23535 17.1053 5.28469L10.0674 9.28284Z" fill="#212123"/>
<path d="M9.37502 18.3385L9.375 18.3438C9.375 18.3801 9.37818 18.4165 9.3845 18.4523C9.43683 18.749 9.69343 18.9662 9.99473 18.9687C10.0047 18.9688 10.0148 18.9687 10.0248 18.9683C10.18 18.9621 10.3274 18.8983 10.4382 18.7894C10.5564 18.6732 10.6236 18.5148 10.625 18.349L10.6953 10.0054L10.6953 10C10.6953 9.99174 10.6951 9.98349 10.6948 9.97524C10.6887 9.81998 10.6249 9.67259 10.516 9.5618C10.3997 9.4436 10.2413 9.37642 10.0756 9.37502L10.0703 9.375C10.0621 9.375 10.0538 9.37516 10.0456 9.37549C9.8903 9.38165 9.7429 9.44541 9.63211 9.55435C9.51392 9.67057 9.44673 9.82898 9.44533 9.99473L9.37502 18.3385Z" fill="#212123"/>
</svg>
