<svg width="20" height="20" viewBox="0 0 20 20" fill="none" xmlns="http://www.w3.org/2000/svg">
<path d="M9.99994 2.5C8.48245 2.49954 7.00037 2.95944 5.74976 3.81912C4.49899 4.67865 3.5386 5.89737 2.99509 7.31445C2.45172 8.73138 2.35086 10.2798 2.70609 11.7552C3.06131 13.2307 3.85568 14.5638 4.98438 15.5782C5.45465 14.6519 6.17227 13.8742 7.05759 13.3308C7.9429 12.7875 8.96127 12.5 9.99994 12.5C9.38196 12.5 8.77771 12.3167 8.26379 11.9734C7.74988 11.6299 7.34934 11.142 7.11282 10.5708C6.87631 9.99985 6.81451 9.37149 6.93506 8.76541C7.0556 8.15918 7.3533 7.60239 7.79031 7.16522C8.22733 6.72821 8.78412 6.43066 9.39035 6.31012C9.99658 6.18942 10.6249 6.25137 11.1959 6.48788C11.7669 6.7244 12.255 7.12494 12.5984 7.63885C12.9417 8.15277 13.1249 8.75687 13.1249 9.375C13.1249 10.2039 12.7958 10.9987 12.2097 11.5848C11.6236 12.1707 10.8288 12.5 9.99994 12.5C11.0388 12.5 12.0571 12.7875 12.9424 13.3308C13.8278 13.8742 14.5454 14.6519 15.0157 15.5782C16.1443 14.5638 16.9387 13.2307 17.2939 11.7552C17.649 10.2798 17.5483 8.73138 17.0048 7.31445C16.4614 5.89737 15.5009 4.67865 14.2503 3.81912C12.9997 2.95944 11.5176 2.49954 9.99994 2.5Z" fill="#F3F1F8"/>
<path fill-rule="evenodd" clip-rule="evenodd" d="M10 5.625C10 5.625 11.5533 5.625 12.6516 6.72335C12.6516 6.72335 13.75 7.8217 13.75 9.375C13.75 9.375 13.75 10.9283 12.6516 12.0267C12.6516 12.0267 11.5533 13.125 10 13.125C10 13.125 8.4467 13.125 7.34835 12.0267C7.34835 12.0267 6.25 10.9283 6.25 9.375C6.25 9.375 6.25 7.8217 7.34835 6.72335C7.34835 6.72335 8.4467 5.625 10 5.625ZM10 6.875C10 6.875 8.96447 6.875 8.23223 7.60723C8.23223 7.60723 7.5 8.33947 7.5 9.375C7.5 9.375 7.5 10.4105 8.23223 11.1428C8.23223 11.1428 8.96447 11.875 10 11.875C10 11.875 11.0355 11.875 11.7678 11.1428C11.7678 11.1428 12.5 10.4105 12.5 9.375C12.5 9.375 12.5 8.33947 11.7678 7.60723C11.7678 7.60723 11.0355 6.875 10 6.875Z" fill="#212123"/>
<path d="M12.6156 13.8632C13.8191 14.6019 14.4583 15.861 14.4583 15.861C14.5334 16.0089 14.6641 16.1208 14.8216 16.1722C14.8843 16.1927 14.9497 16.2031 15.0156 16.2031L15.0327 16.2029C15.1252 16.2003 15.216 16.1773 15.2986 16.1354C15.5084 16.0289 15.6406 15.8135 15.6406 15.5781C15.6406 15.5692 15.6404 15.5602 15.64 15.5513C15.6362 15.4621 15.6133 15.3748 15.5729 15.2952L15.5728 15.295L15.5726 15.2946C14.7736 13.7211 13.2695 12.7979 13.2695 12.7979C11.7651 11.8745 10 11.8745 10 11.8745C8.23486 11.8745 6.7305 12.7979 6.7305 12.7979C5.22615 13.7213 4.42708 15.2952 4.42708 15.2952C4.38257 15.3829 4.35938 15.4798 4.35938 15.5781L4.35939 15.5828C4.36113 15.8164 4.49307 16.0296 4.70144 16.1354C4.78911 16.1799 4.88605 16.2031 4.98438 16.2031L4.98901 16.2031C5.22269 16.2014 5.43588 16.0694 5.54167 15.861C6.18092 14.6019 7.3844 13.8632 7.3844 13.8632C8.58789 13.1245 10 13.1245 10 13.1245C11.4121 13.1245 12.6156 13.8632 12.6156 13.8632Z" fill="#212123"/>
<path d="M13.75 5H17.5C17.8452 5 18.125 4.72018 18.125 4.375C18.125 4.02982 17.8452 3.75 17.5 3.75H13.75C13.4048 3.75 13.125 4.02982 13.125 4.375C13.125 4.72018 13.4048 5 13.75 5Z" fill="#212123"/>
<path d="M15 2.5V6.25C15 6.59518 15.2798 6.875 15.625 6.875C15.9702 6.875 16.25 6.59518 16.25 6.25V2.5C16.25 2.15482 15.9702 1.875 15.625 1.875C15.2798 1.875 15 2.15482 15 2.5Z" fill="#212123"/>
<path d="M11.0787 3.21054L11.0798 3.21072C11.1128 3.21608 11.1462 3.21876 11.1797 3.21876L11.1937 3.21861C11.4949 3.21185 11.7485 2.99113 11.7967 2.69369C11.802 2.66065 11.8047 2.62724 11.8047 2.59377C11.8047 2.58671 11.8046 2.57965 11.8043 2.5726C11.8001 2.44865 11.7592 2.32875 11.6866 2.22817C11.5897 2.09372 11.4433 2.00331 11.2796 1.9768C10.6434 1.87375 9.99879 1.87502 9.99879 1.87502C7.53532 1.87501 5.48601 3.24432 5.48601 3.24432C3.43669 4.61363 2.49349 6.89071 2.49349 6.89071C1.5503 9.16779 2.03113 11.5851 2.03113 11.5851C2.51197 14.0025 4.25477 15.7453 4.25477 15.7453C5.99757 17.4881 8.41491 17.9689 8.41491 17.9689C10.8322 18.4497 13.1093 17.5065 13.1093 17.5065C15.3864 16.5633 16.7557 14.514 16.7557 14.514C18.125 12.4647 18.125 10 18.125 10C18.1263 9.35668 18.0232 8.7204 18.0232 8.7204C17.9742 8.41774 17.7129 8.19533 17.4063 8.19533L17.4056 8.19533C17.3723 8.19536 17.3391 8.19805 17.3063 8.20337C17.1427 8.22987 16.9963 8.32029 16.8993 8.45473C16.8226 8.56117 16.7813 8.68909 16.7813 8.82033L16.7813 8.8222C16.7814 8.85504 16.7841 8.88783 16.7893 8.92025C16.8761 9.45603 16.875 10 16.875 10C16.875 12.0855 15.7164 13.8196 15.7164 13.8196C14.5577 15.5536 12.631 16.3517 12.631 16.3517C10.7042 17.1498 8.65877 16.7429 8.65877 16.7429C6.61333 16.3361 5.13865 14.8614 5.13865 14.8614C3.66398 13.3867 3.25712 11.3413 3.25712 11.3413C2.85025 9.29582 3.64834 7.36907 3.64834 7.36907C4.44643 5.44231 6.18047 4.28366 6.18047 4.28366C7.9145 3.12501 10.0012 3.12501 10.0012 3.12501C10.5429 3.12395 11.0776 3.21038 11.0776 3.21038L11.0787 3.21054Z" fill="#212123"/>
</svg>
