<svg width="86" height="21" viewBox="0 0 86 21" fill="none" xmlns="http://www.w3.org/2000/svg">
<path d="M5.62 16.34C4.06 16.34 2.84 16.02 1.96 15.38C1.08 14.74 0.613333 13.84 0.56 12.68H3.4C3.45333 13.0267 3.66 13.34 4.02 13.62C4.39333 13.8867 4.94667 14.02 5.68 14.02C6.24 14.02 6.7 13.9267 7.06 13.74C7.43333 13.54 7.62 13.26 7.62 12.9C7.62 12.58 7.48 12.3267 7.2 12.14C6.92 11.94 6.42 11.8 5.7 11.72L4.84 11.64C3.52 11.5067 2.52667 11.14 1.86 10.54C1.20667 9.94 0.88 9.17333 0.88 8.24C0.88 7.46667 1.07333 6.82 1.46 6.3C1.84667 5.78 2.38 5.38667 3.06 5.12C3.75333 4.85333 4.54 4.72 5.42 4.72C6.83333 4.72 7.97333 5.03333 8.84 5.66C9.70667 6.27333 10.16 7.16667 10.2 8.34H7.36C7.30667 7.98 7.12 7.68 6.8 7.44C6.48 7.18667 6.00667 7.06 5.38 7.06C4.88667 7.06 4.49333 7.15333 4.2 7.34C3.90667 7.52667 3.76 7.78 3.76 8.1C3.76 8.40667 3.88667 8.64 4.14 8.8C4.39333 8.96 4.80667 9.07333 5.38 9.14L6.24 9.22C7.58667 9.36667 8.63333 9.74 9.38 10.34C10.1267 10.94 10.5 11.7467 10.5 12.76C10.5 13.4933 10.3 14.1333 9.9 14.68C9.5 15.2133 8.93333 15.6267 8.2 15.92C7.46667 16.2 6.60667 16.34 5.62 16.34ZM17.5933 16.38C16.6599 16.38 15.8333 16.22 15.1133 15.9C14.4066 15.58 13.8133 15.1533 13.3333 14.62C12.8666 14.0733 12.5066 13.4667 12.2533 12.8C12.0133 12.12 11.8933 11.4267 11.8933 10.72V10.32C11.8933 9.58667 12.0133 8.88667 12.2533 8.22C12.5066 7.54 12.8666 6.93333 13.3333 6.4C13.7999 5.86667 14.3799 5.44667 15.0733 5.14C15.7799 4.82 16.5799 4.66 17.4733 4.66C18.6466 4.66 19.6333 4.92667 20.4333 5.46C21.2466 5.98 21.8666 6.66667 22.2933 7.52C22.7199 8.36 22.9333 9.28 22.9333 10.28V11.36H13.2333V9.54H20.9933L19.9533 10.38C19.9533 9.72667 19.8599 9.16667 19.6733 8.7C19.4866 8.23333 19.2066 7.88 18.8333 7.64C18.4733 7.38667 18.0199 7.26 17.4733 7.26C16.9133 7.26 16.4399 7.38667 16.0533 7.64C15.6666 7.89333 15.3733 8.26667 15.1733 8.76C14.9733 9.24 14.8733 9.83333 14.8733 10.54C14.8733 11.1933 14.9666 11.7667 15.1533 12.26C15.3399 12.74 15.6333 13.1133 16.0333 13.38C16.4333 13.6467 16.9533 13.78 17.5933 13.78C18.1799 13.78 18.6599 13.6667 19.0333 13.44C19.4066 13.2133 19.6599 12.9333 19.7933 12.6H22.7333C22.5733 13.3333 22.2599 13.9867 21.7933 14.56C21.3266 15.1333 20.7399 15.58 20.0333 15.9C19.3266 16.22 18.5133 16.38 17.5933 16.38ZM29.3738 20.36C28.8404 20.36 28.2938 20.34 27.7338 20.3C27.1738 20.26 26.6604 20.2067 26.1938 20.14V17.44C26.6604 17.5067 27.1738 17.56 27.7338 17.6C28.3071 17.6533 28.8271 17.68 29.2938 17.68C30.1604 17.68 30.8604 17.58 31.3938 17.38C31.9404 17.18 32.3404 16.8733 32.5938 16.46C32.8471 16.06 32.9738 15.54 32.9738 14.9V12.72L33.5538 11.44C33.5271 12.4133 33.3338 13.2467 32.9738 13.94C32.6271 14.6333 32.1404 15.1667 31.5138 15.54C30.8871 15.9 30.1404 16.08 29.2738 16.08C28.5271 16.08 27.8471 15.9467 27.2338 15.68C26.6338 15.4 26.1204 15.0133 25.6938 14.52C25.2671 14.0267 24.9404 13.4533 24.7138 12.8C24.4871 12.1333 24.3738 11.4133 24.3738 10.64V10.18C24.3738 9.40667 24.4938 8.68667 24.7338 8.02C24.9738 7.35333 25.3204 6.77333 25.7738 6.28C26.2271 5.78667 26.7671 5.40667 27.3938 5.14C28.0204 4.86 28.7138 4.72 29.4737 4.72C30.3538 4.72 31.1138 4.91333 31.7538 5.3C32.4071 5.68667 32.9204 6.25333 33.2938 7C33.6671 7.74667 33.8671 8.64667 33.8938 9.7L33.4538 9.82V5.04H35.9938V14.7C35.9938 16.0467 35.7538 17.1333 35.2738 17.96C34.7938 18.7867 34.0604 19.3933 33.0738 19.78C32.1004 20.1667 30.8671 20.36 29.3738 20.36ZM30.2738 13.38C30.7671 13.38 31.2138 13.2733 31.6138 13.06C32.0138 12.8333 32.3271 12.5133 32.5538 12.1C32.7938 11.6867 32.9138 11.1867 32.9138 10.6V10.02C32.9138 9.44667 32.7871 8.96667 32.5338 8.58C32.2938 8.18 31.9738 7.88 31.5738 7.68C31.1738 7.46667 30.7471 7.36 30.2938 7.36C29.7604 7.36 29.2871 7.48667 28.8737 7.74C28.4604 7.99333 28.1404 8.34667 27.9138 8.8C27.6871 9.25333 27.5738 9.78667 27.5738 10.4C27.5738 11.0267 27.6871 11.5667 27.9138 12.02C28.1538 12.46 28.4738 12.8 28.8737 13.04C29.2871 13.2667 29.7538 13.38 30.2738 13.38ZM42.7847 16L44.7847 5.4H48.2847L50.6047 16H48.1247L45.7447 5.48H47.1647L45.0247 16H42.7847ZM42.0247 16L42.0047 13.34H44.2047L44.2247 16H42.0247ZM40.5847 16L37.6447 5.04H40.7847L43.5247 16H40.5847ZM48.9447 16L48.9647 13.34H51.1647V16H48.9447ZM49.8447 16L52.2847 5.04H55.2247L52.5847 16H49.8447ZM57.7222 16V5.04H60.9222V16H57.7222ZM56.2622 7.4V5.04H60.9222V7.4H56.2622ZM58.9622 3.96C58.3622 3.96 57.9155 3.80667 57.6222 3.5C57.3422 3.18 57.2022 2.78 57.2022 2.3C57.2022 1.80667 57.3422 1.40667 57.6222 1.1C57.9155 0.779999 58.3622 0.619999 58.9622 0.619999C59.5622 0.619999 60.0022 0.779999 60.2822 1.1C60.5755 1.40667 60.7222 1.80667 60.7222 2.3C60.7222 2.78 60.5755 3.18 60.2822 3.5C60.0022 3.80667 59.5622 3.96 58.9622 3.96ZM68.0419 16.34C66.4819 16.34 65.2619 16.02 64.3819 15.38C63.5019 14.74 63.0352 13.84 62.9819 12.68H65.8219C65.8752 13.0267 66.0819 13.34 66.4419 13.62C66.8152 13.8867 67.3685 14.02 68.1019 14.02C68.6619 14.02 69.1219 13.9267 69.4819 13.74C69.8552 13.54 70.0419 13.26 70.0419 12.9C70.0419 12.58 69.9019 12.3267 69.6219 12.14C69.3419 11.94 68.8419 11.8 68.1219 11.72L67.2619 11.64C65.9419 11.5067 64.9485 11.14 64.2819 10.54C63.6285 9.94 63.3019 9.17333 63.3019 8.24C63.3019 7.46667 63.4952 6.82 63.8819 6.3C64.2685 5.78 64.8019 5.38667 65.4819 5.12C66.1752 4.85333 66.9619 4.72 67.8419 4.72C69.2552 4.72 70.3952 5.03333 71.2619 5.66C72.1285 6.27333 72.5819 7.16667 72.6219 8.34H69.7819C69.7285 7.98 69.5419 7.68 69.2219 7.44C68.9019 7.18667 68.4285 7.06 67.8019 7.06C67.3085 7.06 66.9152 7.15333 66.6219 7.34C66.3285 7.52667 66.1819 7.78 66.1819 8.1C66.1819 8.40667 66.3085 8.64 66.5619 8.8C66.8152 8.96 67.2285 9.07333 67.8019 9.14L68.6619 9.22C70.0085 9.36667 71.0552 9.74 71.8019 10.34C72.5485 10.94 72.9219 11.7467 72.9219 12.76C72.9219 13.4933 72.7219 14.1333 72.3219 14.68C71.9219 15.2133 71.3552 15.6267 70.6219 15.92C69.8885 16.2 69.0285 16.34 68.0419 16.34ZM80.0152 16.38C79.0818 16.38 78.2552 16.22 77.5352 15.9C76.8285 15.58 76.2352 15.1533 75.7552 14.62C75.2885 14.0733 74.9285 13.4667 74.6752 12.8C74.4352 12.12 74.3152 11.4267 74.3152 10.72V10.32C74.3152 9.58667 74.4352 8.88667 74.6752 8.22C74.9285 7.54 75.2885 6.93333 75.7552 6.4C76.2218 5.86667 76.8018 5.44667 77.4952 5.14C78.2018 4.82 79.0018 4.66 79.8952 4.66C81.0685 4.66 82.0552 4.92667 82.8552 5.46C83.6685 5.98 84.2885 6.66667 84.7152 7.52C85.1418 8.36 85.3552 9.28 85.3552 10.28V11.36H75.6552V9.54H83.4152L82.3752 10.38C82.3752 9.72667 82.2818 9.16667 82.0952 8.7C81.9085 8.23333 81.6285 7.88 81.2552 7.64C80.8952 7.38667 80.4418 7.26 79.8952 7.26C79.3352 7.26 78.8618 7.38667 78.4752 7.64C78.0885 7.89333 77.7952 8.26667 77.5952 8.76C77.3952 9.24 77.2952 9.83333 77.2952 10.54C77.2952 11.1933 77.3885 11.7667 77.5752 12.26C77.7618 12.74 78.0552 13.1133 78.4552 13.38C78.8552 13.6467 79.3752 13.78 80.0152 13.78C80.6018 13.78 81.0818 13.6667 81.4552 13.44C81.8285 13.2133 82.0818 12.9333 82.2152 12.6H85.1552C84.9952 13.3333 84.6818 13.9867 84.2152 14.56C83.7485 15.1333 83.1618 15.58 82.4552 15.9C81.7485 16.22 80.9352 16.38 80.0152 16.38Z" fill="#212123"/>
</svg>
